<svg width="60.000000" height="24.000000" viewBox="0 0 60 24" fill="none" xmlns="http://www.w3.org/2000/svg" xmlns:xlink="http://www.w3.org/1999/xlink">
	<desc>
			Created with Pixso.
	</desc>
	<defs>
		<clipPath id="clip1_137">
			<rect width="60.000000" height="24.000000" fill="white" fill-opacity="0"/>
		</clipPath>
	</defs>
	<rect width="60.000000" height="24.000000" fill="#FFFFFF" fill-opacity="0"/>
	<g clip-path="url(#clip1_137)">
		<path d="M37.6385 18.0686L38.1583 17.9551C38.6232 17.8635 38.9282 17.6897 38.9282 17.103L38.9282 7.3479L37.6385 6.62793L37.6385 6.09814L41.0259 5L41.276 5L41.276 17.103C41.276 17.709 41.6229 17.8982 42.0841 17.9927L42.5267 18.0686L42.5267 18.8079L37.6385 18.8079L37.6385 18.0686ZM41.488 13.8831L43.7587 11.687C44.5286 10.9294 44.4328 10.3997 43.6053 10.2478L42.9888 10.1343L42.9888 9.39575L47.743 9.39575L47.743 10.1343L47.2465 10.2312C46.6951 10.325 46.1891 10.5908 45.8034 10.9897L43.6434 13.0679L47.9355 18.1829L47.7625 18.8645L45.4147 18.8645L41.488 13.8831ZM29.7666 5.39722C26.1673 5.39722 22.991 8.125 22.991 12.3862C22.991 16.3264 25.84 18.9973 29.5165 18.9973C33.3083 18.9973 36.3294 16.4023 36.3294 12.1785C36.3294 8.125 33.5008 5.39722 29.7666 5.39722ZM29.5546 6.60962C31.9601 6.60962 33.5194 8.69312 33.5194 12.3862C33.5194 15.9851 31.9973 17.7849 29.7852 17.7849C27.4569 17.7849 25.8009 15.6821 25.8009 12.0266C25.8009 8.33252 27.4374 6.60962 29.5546 6.60962ZM13.9474 9.95654L13.9474 11.7556C12.3451 11.7576 10.809 12.3848 9.6759 13.4998C8.76154 14.3997 8.16992 15.5579 7.97461 16.8003L13.9474 16.8003L13.9474 18.5991L0 18.5991L0 16.8003L6.00476 16.8003C5.80927 15.5496 5.21423 14.3835 4.29388 13.4778C3.15491 12.3569 1.61072 11.7263 0 11.7246L0 9.92188C1.4389 9.92285 2.85028 10.3101 4.08221 11.0417C5.31415 11.7734 6.31995 12.822 6.99139 14.0742C7.66187 12.8313 8.66351 11.7913 9.88898 11.0659C11.1144 10.3406 12.5174 9.95703 13.9474 9.95654ZM49.9755 11.3826L49.9755 15.9099C49.9755 18.031 51.4196 18.9973 52.8255 18.9973C54.2834 18.9973 55.5536 18.1252 56.2658 17.1033L56.2658 19L56.7084 19L60 18.375L60 17.6714L59.3491 17.6147C58.7522 17.5388 58.5021 17.311 58.5021 16.8379L58.5021 9.1333L58.0213 9.1333L54.6907 9.7373L54.6907 10.4199L55.3258 10.5112C55.9032 10.5681 56.1338 10.8142 56.1338 11.3826L56.1338 16.6724C55.5218 17.0493 54.8157 17.2522 54.0937 17.2588C53.2123 17.2588 52.3271 16.9185 52.3271 15.3271L52.3271 9.1333L51.8622 9.1333L48.5901 9.7373L48.5901 10.4199L49.187 10.5112C49.7449 10.5874 49.9755 10.8142 49.9755 11.3826Z" fill="#000000" fill-opacity="1.000000" fill-rule="evenodd"/>
		<path d="M6.97375 9.42603C8.2052 9.42603 9.20349 8.4436 9.20349 7.23193C9.20349 6.02002 8.2052 5.0376 6.97375 5.0376C5.74231 5.0376 4.74402 6.02002 4.74402 7.23193C4.74402 8.4436 5.74231 9.42603 6.97375 9.42603Z" fill="#000000" fill-opacity="1.000000" fill-rule="nonzero"/>
	</g>
</svg>
